<svg version="1.1" xmlns="http://www.w3.org/2000/svg" width="512" height="512" viewBox="0 0 512 512">
<path fill="#000" d="M32 256v-224h448v448h-448v-224zM213.967 81.496c-28.35 7.124-68.697 31.002-88.284 52.249-10.058 10.913-24.673 33.313-32.466 49.769-12.839 27.099-14.18 33.966-14.18 72.718 0 40.389 0.939 44.694 16.731 76.644 20.152 40.776 46.090 66.176 87.74 85.904 27.063 12.822 33.999 14.18 72.486 14.18s45.423-1.358 72.486-14.18c41.651-19.728 67.591-45.128 87.74-85.904 15.811-31.988 16.731-36.219 16.731-76.875s-0.923-44.89-16.731-76.875c-30.27-61.256-84.055-97.197-150.151-100.344-19.095-0.909-42.541 0.314-52.108 2.716zM197.76 239.626c0 58.619-0.79 64.979-8.979 72.393-7.384 6.679-10.943 7.226-20.035 3.087-6.083-2.772-12.342-10.149-13.91-16.393-2.057-8.19-5.832-11.353-13.56-11.353-12.481 0-13.536 6.985-4.355 28.954 7.744 18.538 29.56 26.536 53.989 19.791 26.7-7.373 29.248-15.421 29.248-92.304v-68.44h-22.4v64.266zM256 256v80.64h26.88v-161.28h-26.88v80.64zM318.72 256v80.64h26.88v-161.28h-26.88v80.64z"></path>
</svg>
