<svg version="1.1" xmlns="http://www.w3.org/2000/svg" width="512" height="512" viewBox="0 0 512 512">
<path fill="#000" d="M72.96 143.36h20.48v204.8h-20.48v-204.8z"></path>
<path fill="#000" d="M418.56 143.36h20.48v204.8h-20.48v-204.8z"></path>
<path fill="#000" d="M72.96 143.36h365.080v20.48h-365.080v-20.48z"/>
<path fill="#000" d="M72.96 327.68h365.080v20.48h-365.080v-20.48z"/>
<path fill="#000" d="M480 373.76c0 28.277-22.923 51.2-51.2 51.2s-51.2-22.923-51.2-51.2c0-28.277 22.923-51.2 51.2-51.2s51.2 22.923 51.2 51.2z"></path>
<path fill="#000" d="M134.4 117.76c0 28.277-22.923 51.2-51.2 51.2s-51.2-22.923-51.2-51.2c0-28.277 22.923-51.2 51.2-51.2s51.2 22.923 51.2 51.2z"></path>
</svg>
